#N canvas 130 273 1436 814 10;
#X obj 433 399 dac~;
#X obj 433 345 clip~ -1 1;
#X obj 433 310 hip~ 1;
#X obj 436 -90 hsl 128 15 0 1 0 0 empty empty empty -2 -8 0 10 -262144
-1 -1 254 1;
#X obj 575 -90 hsl 128 15 0 1 0 0 empty empty empty -2 -8 0 10 -262144
-1 -1 6350 1;
#X obj 538 345 clip~ -1 1;
#X obj 538 310 hip~ 1;
#N canvas 404 50 889 639 OmGen 0;
#X obj 37 583 outlet~;
#X obj 101 22 inlet;
#X obj 101 127 phasor~ 100;
#X obj 101 149 -~ 0.5;
#X obj 101 171 cos~;
#X obj 101 193 +~ 1;
#X obj 101 215 *~ 0.5;
#X obj 101 237 *~;
#X obj 206 137 sig~;
#X obj 206 159 lop~ 10;
#X obj 191 190 *~;
#X obj 191 212 cos~;
#X floatatom 101 76 5 0 0 1 frequency - -;
#X floatatom 206 117 5 0 0 1 ripple - -;
#X obj 101 299 *~;
#X floatatom 355 155 5 0 0 1 width - -;
#X obj 101 352 *~;
#X obj 101 374 +~ 1;
#X obj 37 447 /~;
#X obj 37 374 sig~ 1;
#X obj 37 505 hip~ 1;
#X obj 205 21 inlet;
#X obj 355 21 inlet;
#X text 256 387 based on an example in Andy Farnell's book \, Designing
Sound \, see section 52 on Mammals;
#X connect 1 0 12 0;
#X connect 2 0 3 0;
#X connect 3 0 4 0;
#X connect 3 0 10 0;
#X connect 4 0 5 0;
#X connect 5 0 6 0;
#X connect 6 0 7 0;
#X connect 7 0 14 0;
#X connect 8 0 9 0;
#X connect 9 0 10 1;
#X connect 10 0 11 0;
#X connect 11 0 7 1;
#X connect 12 0 2 0;
#X connect 13 0 8 0;
#X connect 14 0 16 0;
#X connect 14 0 16 1;
#X connect 15 0 14 1;
#X connect 16 0 17 0;
#X connect 17 0 18 1;
#X connect 18 0 20 0;
#X connect 19 0 18 0;
#X connect 20 0 0 0;
#X connect 21 0 13 0;
#X connect 22 0 15 0;
#X restore 433 119 pd OmGen;
#X floatatom 433 83 5 0 0 0 - - -;
#X obj 433 -48 * 1400;
#N canvas 394 175 839 516 schroederReverb 0;
#X obj 82 91 +~;
#X obj 82 18 inlet~;
#X obj 142 91 +~;
#X obj 327 213 +~;
#X obj 327 254 +~;
#X obj 327 293 *~ 0.4;
#X obj 359 213 -~;
#X obj 376 293 *~ 0.37;
#X obj 359 254 +~;
#X obj 82 247 outlet~;
#X obj 142 247 outlet~;
#X obj 390 213 +~;
#X obj 420 213 -~;
#X obj 390 254 -~;
#X obj 421 254 -~;
#X obj 431 294 *~ 0.333;
#X obj 492 294 *~ 0.3;
#X text 427 454 Schroeder reverb \, source: Andy Farnell's Designing
Sound \, page 234 \, Claude Heiland-Allen credited;
#X obj 127 18 delread~ drom1A 101;
#X obj 250 18 delread~ drom1B 143;
#X obj 373 18 delread~ drom1C 165;
#X obj 496 18 delread~ drom1D 177;
#X obj 87 341 delwrite~ drom1A 1000;
#X obj 222 341 delwrite~ drom1B 1000;
#X obj 357 341 delwrite~ drom1C 1000;
#X obj 492 341 delwrite~ drom1D 1000;
#X connect 0 0 3 0;
#X connect 0 0 9 0;
#X connect 0 0 6 0;
#X connect 1 0 0 0;
#X connect 1 0 2 0;
#X connect 2 0 10 0;
#X connect 2 0 6 1;
#X connect 2 0 3 1;
#X connect 3 0 4 0;
#X connect 3 0 13 0;
#X connect 4 0 5 0;
#X connect 5 0 22 0;
#X connect 6 0 8 0;
#X connect 6 0 14 0;
#X connect 7 0 23 0;
#X connect 8 0 7 0;
#X connect 11 0 13 1;
#X connect 11 0 4 1;
#X connect 12 0 14 1;
#X connect 12 0 8 1;
#X connect 13 0 15 0;
#X connect 14 0 16 0;
#X connect 15 0 24 0;
#X connect 16 0 25 0;
#X connect 18 0 0 1;
#X connect 19 0 2 1;
#X connect 20 0 11 0;
#X connect 20 0 12 0;
#X connect 21 0 11 1;
#X connect 21 0 12 1;
#X restore 433 236 pd schroederReverb;
#X floatatom 572 -5 10 0 0 0 - - -;
#X obj 857 -91 hsl 128 15 0 1 0 0 empty empty empty -2 -8 0 10 -262144
-1 -1 1524 1;
#X floatatom 854 75 5 0 0 0 - - -;
#X obj 854 47 line;
#X obj 854 18 pack f 200;
#X obj 433 9 pack f 200;
#X obj 433 38 line;
#X obj 854 -28 + 5;
#X obj 854 -58 * 95;
#X obj 718 -90 hsl 128 15 0 1 0 0 empty empty empty -2 -8 0 10 -262144
-1 -1 5080 1;
#X floatatom 715 76 5 0 0 0 - - -;
#X obj 715 48 line;
#X obj 715 19 pack f 200;
#X obj 715 -57 * 10;
#X obj 715 -27 + 2;
#X obj 55 -58 loadbang;
#N canvas 0 22 423 363 sinTaperFade 0;
#X obj 158 33 inlet~;
#X obj 202 33 inlet;
#X obj 161 255 *~;
#X obj 161 301 outlet~;
#X obj 177 187 sin;
#X obj 202 58 * 2;
#X obj 202 80 - 1;
#X obj 202 102 + 1;
#X obj 202 124 / 4;
#X obj 202 146 * 3.14159;
#X floatatom 202 168 5 0 0 0 - - -;
#X msg 176 208 \$1 60;
#X obj 176 230 line~;
#X connect 0 0 2 0;
#X connect 1 0 5 0;
#X connect 2 0 3 0;
#X connect 4 0 11 0;
#X connect 5 0 6 0;
#X connect 6 0 7 0;
#X connect 7 0 8 0;
#X connect 8 0 9 0;
#X connect 9 0 10 0;
#X connect 10 0 4 0;
#X connect 11 0 12 0;
#X connect 12 0 2 1;
#X restore 433 174 pd sinTaperFade;
#N canvas 0 22 458 286 sin 0;
#X obj 202 33 inlet;
#X obj 202 187 sin;
#X obj 202 58 * 2;
#X obj 202 80 - 1;
#X obj 202 102 + 1;
#X obj 202 124 / 4;
#X obj 202 146 * 3.14159;
#X floatatom 202 168 5 0 0 0 - - -;
#X obj 202 209 outlet;
#X connect 0 0 2 0;
#X connect 1 0 8 0;
#X connect 2 0 3 0;
#X connect 3 0 4 0;
#X connect 4 0 5 0;
#X connect 5 0 6 0;
#X connect 6 0 7 0;
#X connect 7 0 1 0;
#X restore 433 -71 pd sin;
#X obj 433 -20 + 20;
#X obj 572 -118 r pd_vol;
#X obj 433 -118 r pd_freq;
#X obj 715 -118 r pd_ripple;
#X obj 854 -119 r pd_width;
#X msg 55 -12 \; pd_ripple 0.4 \; pd_width 0.12 \; pd_freq 0.02 \;
pd_vol 0.5 \;;
#X text 53 -89 Pd patch for protoDrom tutorial 1 by Shawn Greenlee
;
#X connect 1 0 0 0;
#X connect 2 0 1 0;
#X connect 3 0 28 0;
#X connect 4 0 11 0;
#X connect 5 0 0 1;
#X connect 6 0 5 0;
#X connect 7 0 27 0;
#X connect 8 0 7 0;
#X connect 9 0 29 0;
#X connect 10 0 2 0;
#X connect 10 1 6 0;
#X connect 11 0 27 1;
#X connect 12 0 19 0;
#X connect 13 0 7 2;
#X connect 14 0 13 0;
#X connect 15 0 14 0;
#X connect 16 0 17 0;
#X connect 17 0 8 0;
#X connect 18 0 15 0;
#X connect 19 0 18 0;
#X connect 20 0 24 0;
#X connect 21 0 7 1;
#X connect 22 0 21 0;
#X connect 23 0 22 0;
#X connect 24 0 25 0;
#X connect 25 0 23 0;
#X connect 26 0 34 0;
#X connect 27 0 10 0;
#X connect 28 0 9 0;
#X connect 29 0 16 0;
#X connect 30 0 4 0;
#X connect 31 0 3 0;
#X connect 32 0 20 0;
#X connect 33 0 12 0;
